<svg xmlns="http://www.w3.org/2000/svg" width="600" height="800" viewBox="0 0 600 800" preserveAspectRatio="xMidYMid slice">
  <defs>
    <linearGradient id="bgfade" x1="0" y1="0" x2="0" y2="1">
      <stop offset="0" stop-color="#1a0804"></stop>
      <stop offset="0.5" stop-color="#08040a"></stop>
      <stop offset="1" stop-color="#020103"></stop>
    </linearGradient>

    <radialGradient id="haloGlow" cx="50%" cy="50%" r="50%">
      <stop offset="0" stop-color="#fff4c8" stop-opacity="1"></stop>
      <stop offset="0.35" stop-color="#f2b94a" stop-opacity="0.85"></stop>
      <stop offset="0.75" stop-color="#7a2a0a" stop-opacity="0.55"></stop>
      <stop offset="1" stop-color="#1a0403" stop-opacity="0"></stop>
    </radialGradient>

    <linearGradient id="goldArmor" x1="0" y1="0" x2="0" y2="1">
      <stop offset="0" stop-color="#ffe9a8"></stop>
      <stop offset="0.35" stop-color="#e8b048"></stop>
      <stop offset="0.75" stop-color="#8a4414"></stop>
      <stop offset="1" stop-color="#3a1506"></stop>
    </linearGradient>

    <linearGradient id="goldHigh" x1="0" y1="0" x2="0" y2="1">
      <stop offset="0" stop-color="#fff2c2"></stop>
      <stop offset="1" stop-color="#d89228"></stop>
    </linearGradient>

    <linearGradient id="skinShade" x1="0" y1="0" x2="0" y2="1">
      <stop offset="0" stop-color="#e9c48a"></stop>
      <stop offset="0.6" stop-color="#a56c30"></stop>
      <stop offset="1" stop-color="#3d1c0a"></stop>
    </linearGradient>

    <radialGradient id="throneShade" cx="50%" cy="30%" r="70%">
      <stop offset="0" stop-color="#3a1c0c"></stop>
      <stop offset="0.6" stop-color="#150805"></stop>
      <stop offset="1" stop-color="#050102"></stop>
    </radialGradient>

    <filter id="soft" x="-30%" y="-30%" width="160%" height="160%">
      <feGaussianBlur stdDeviation="3"></feGaussianBlur>
    </filter>
  </defs>

  
  <rect width="600" height="800" fill="url(#bgfade)"></rect>

  
  <g fill="#f5e8c0" opacity="0.55">
    <circle cx="40" cy="60" r="1"></circle>
    <circle cx="120" cy="30" r="0.7"></circle>
    <circle cx="500" cy="80" r="1"></circle>
    <circle cx="560" cy="40" r="0.7"></circle>
    <circle cx="90" cy="210" r="0.8"></circle>
    <circle cx="540" cy="200" r="0.9"></circle>
    <circle cx="30" cy="440" r="0.6"></circle>
    <circle cx="580" cy="470" r="0.7"></circle>
    <circle cx="480" cy="520" r="0.5"></circle>
    <circle cx="100" cy="600" r="0.6"></circle>
  </g>

  
  <g transform="translate(300 360)">

    
    <path d="M -240 180 L -240 -80 C -240 -220 -150 -300 0 -300 C 150 -300 240 -220 240 -80 L 240 180 Z" fill="url(#throneShade)" stroke="#1d0906" stroke-width="2"></path>

    
    <path d="M -210 180 L -210 -70 C -210 -200 -130 -270 0 -270 C 130 -270 210 -200 210 -70 L 210 180 Z" fill="#0a0403" stroke="#3a1c0c" stroke-width="1"></path>

    
    <g stroke="url(#goldArmor)" stroke-width="2.5" fill="none" opacity="0.85">
      <path d="M -200 -60 C -200 -240 -90 -280 -20 -280"></path>
      <path d="M -170 -90 C -170 -230 -80 -260 -10 -260"></path>
      <path d="M -140 -120 C -140 -220 -70 -240 -5 -240"></path>
      <path d="M  200 -60 C  200 -240  90 -280  20 -280"></path>
      <path d="M  170 -90 C  170 -230  80 -260  10 -260"></path>
      <path d="M  140 -120 C  140 -220  70 -240   5 -240"></path>
    </g>

    
    <g fill="url(#goldHigh)" stroke="#5c2a0a" stroke-width="0.6">
      <circle cx="-200" cy="-60" r="5"></circle>
      <circle cx="-170" cy="-90" r="4"></circle>
      <circle cx="-140" cy="-120" r="3.5"></circle>
      <circle cx="-100" cy="-170" r="3.5"></circle>
      <circle cx=" -60" cy="-210" r="3.5"></circle>
      <circle cx="  0" cy="-240" r="6" fill="#ff4533"></circle>
      <circle cx="  60" cy="-210" r="3.5"></circle>
      <circle cx=" 100" cy="-170" r="3.5"></circle>
      <circle cx=" 140" cy="-120" r="3.5"></circle>
      <circle cx=" 170" cy="-90" r="4"></circle>
      <circle cx=" 200" cy="-60" r="5"></circle>
    </g>

    
    <g fill="#bfa06a" stroke="#3a1c0c" stroke-width="1.5">
      <g transform="translate(-205 80)">
        <path d="M -22 -10 a 22 24 0 1 1 44 0 v 12 l -6 6 h -6 l -2 6 h -4 l -2 -6 h -6 l -6 -6 z"></path>
        <circle cx="-8" cy="-6" r="4" fill="#0a0403"></circle>
        <circle cx=" 8" cy="-6" r="4" fill="#0a0403"></circle>
      </g>
      <g transform="translate( 205 80)">
        <path d="M -22 -10 a 22 24 0 1 1 44 0 v 12 l -6 6 h -6 l -2 6 h -4 l -2 -6 h -6 l -6 -6 z"></path>
        <circle cx="-8" cy="-6" r="4" fill="#0a0403"></circle>
        <circle cx=" 8" cy="-6" r="4" fill="#0a0403"></circle>
      </g>
    </g>

    
    <g filter="url(#soft)" opacity="0.95">
      <circle cx="0" cy="-170" r="170" fill="url(#haloGlow)"></circle>
    </g>

    
    <g transform="translate(0 -170)" fill="#f3b35a" opacity="0.55">
      <g id="rays">
        <polygon points="0,-170 3,-90 -3,-90"></polygon>
        <polygon points="0,-170 3,-90 -3,-90" transform="rotate(15)"></polygon>
        <polygon points="0,-170 3,-90 -3,-90" transform="rotate(30)"></polygon>
        <polygon points="0,-170 3,-90 -3,-90" transform="rotate(45)"></polygon>
        <polygon points="0,-170 3,-90 -3,-90" transform="rotate(60)"></polygon>
        <polygon points="0,-170 3,-90 -3,-90" transform="rotate(75)"></polygon>
        <polygon points="0,-170 3,-90 -3,-90" transform="rotate(90)"></polygon>
        <polygon points="0,-170 3,-90 -3,-90" transform="rotate(105)"></polygon>
        <polygon points="0,-170 3,-90 -3,-90" transform="rotate(120)"></polygon>
        <polygon points="0,-170 3,-90 -3,-90" transform="rotate(135)"></polygon>
        <polygon points="0,-170 3,-90 -3,-90" transform="rotate(150)"></polygon>
        <polygon points="0,-170 3,-90 -3,-90" transform="rotate(165)"></polygon>
        <polygon points="0,-170 3,-90 -3,-90" transform="rotate(180)"></polygon>
        <polygon points="0,-170 3,-90 -3,-90" transform="rotate(195)"></polygon>
        <polygon points="0,-170 3,-90 -3,-90" transform="rotate(210)"></polygon>
        <polygon points="0,-170 3,-90 -3,-90" transform="rotate(225)"></polygon>
        <polygon points="0,-170 3,-90 -3,-90" transform="rotate(240)"></polygon>
        <polygon points="0,-170 3,-90 -3,-90" transform="rotate(255)"></polygon>
        <polygon points="0,-170 3,-90 -3,-90" transform="rotate(270)"></polygon>
        <polygon points="0,-170 3,-90 -3,-90" transform="rotate(285)"></polygon>
        <polygon points="0,-170 3,-90 -3,-90" transform="rotate(300)"></polygon>
        <polygon points="0,-170 3,-90 -3,-90" transform="rotate(315)"></polygon>
        <polygon points="0,-170 3,-90 -3,-90" transform="rotate(330)"></polygon>
        <polygon points="0,-170 3,-90 -3,-90" transform="rotate(345)"></polygon>
      </g>
    </g>
    <circle cx="0" cy="-170" r="78" fill="none" stroke="#f3b35a" stroke-width="1" opacity="0.7"></circle>
    <circle cx="0" cy="-170" r="86" fill="none" stroke="#f3b35a" stroke-width="0.5" opacity="0.5" stroke-dasharray="2 4"></circle>

    

    
    <path d="M -150 30&#xA;             C -140 -40 -100 -70 -60 -74&#xA;             L  60 -74&#xA;             C  100 -70 140 -40 150 30&#xA;             L  130 90 L -130 90 Z" fill="url(#goldArmor)" stroke="#3a1c0c" stroke-width="2" stroke-linejoin="round"></path>

    
    <path d="M -150 30 C -160 -20 -130 -64 -90 -72 C -78 -74 -70 -60 -74 -46 L -100 30 Z" fill="url(#goldHigh)" stroke="#3a1c0c" stroke-width="1.5"></path>
    
    <path d="M 150 30 C 160 -20 130 -64 90 -72 C 78 -74 70 -60 74 -46 L 100 30 Z" fill="url(#goldHigh)" stroke="#3a1c0c" stroke-width="1.5"></path>

    
    <path d="M -148 20 Q -100 50 -60 30" fill="none" stroke="#3a1c0c" stroke-width="1.5"></path>
    <path d="M  148 20 Q  100 50  60 30" fill="none" stroke="#3a1c0c" stroke-width="1.5"></path>

    
    <path d="M -90 -10 L 90 -10 L 100 90 L -100 90 Z" fill="url(#goldArmor)" stroke="#3a1c0c" stroke-width="2"></path>

    
    <g transform="translate(0 36)" fill="#0a0403" stroke="#0a0403" stroke-width="0.5">
      
      <path d="M -6 0 L 6 0 L 10 36 L -10 36 Z"></path>
      
      <path d="M -6 -6&#xA;               C -30 -4 -48 4 -58 20&#xA;               C -46 18 -38 22 -32 30&#xA;               C -40 30 -46 36 -48 44&#xA;               C -36 40 -24 40 -16 46&#xA;               C -22 50 -24 56 -22 62&#xA;               L -10 36 L -4 8 Z"></path>
      
      <path d="M  6 -6&#xA;               C  30 -4  48 4  58 20&#xA;               C  46 18  38 22  32 30&#xA;               C  40 30  46 36  48 44&#xA;               C  36 40  24 40  16 46&#xA;               C  22 50  24 56  22 62&#xA;               L  10 36 L  4 8 Z"></path>
      
      <path d="M -4 -10 C -12 -14 -16 -8 -18 -2 L -12 0 L -6 -4 Z"></path>
      
      <path d="M  4 -10 C  12 -14  16 -8  18 -2 L  12 0 L  6 -4 Z"></path>
      
      <circle cx="-16" cy="-4" r="1" fill="#d98d28"></circle>
      <circle cx=" 16" cy="-4" r="1" fill="#d98d28"></circle>
    </g>

    
    <g fill="#f3b35a" opacity="0.85">
      <circle cx="-70" cy="-2" r="2"></circle>
      <circle cx="-40" cy="-2" r="2"></circle>
      <circle cx=" 40" cy="-2" r="2"></circle>
      <circle cx=" 70" cy="-2" r="2"></circle>
    </g>

    
    <path d="M -52 -10&#xA;             C -52 -40 -30 -54 0 -54&#xA;             C  30 -54  52 -40  52 -10 Z" fill="url(#goldHigh)" stroke="#3a1c0c" stroke-width="2"></path>
    
    <circle cx="0" cy="-24" r="6" fill="#ff4533" stroke="#3a1c0c" stroke-width="1"></circle>
    <circle cx="0" cy="-24" r="2" fill="#ffd4a0"></circle>

    
    <path d="M -14 -58 L -18 -44 L 18 -44 L 14 -58 Z" fill="url(#skinShade)" stroke="#3a1c0c" stroke-width="1"></path>

    
    <g transform="translate(0 -130)">
      
      <path d="M -40 -10&#xA;               C -40 -55 -22 -76 0 -76&#xA;               C  22 -76  40 -55  40 -10&#xA;               C  40 16  28 40  12 48&#xA;               C  4 52 -4 52 -12 48&#xA;               C -28 40 -40 16 -40 -10 Z" fill="url(#skinShade)" stroke="#3a1c0c" stroke-width="1.5"></path>

      
      <path d="M -42 -46&#xA;               C -44 -64 -28 -78 -10 -78&#xA;               L 10 -78&#xA;               C  28 -78  44 -64  42 -46&#xA;               C  36 -52  24 -56  10 -54&#xA;               L -10 -54&#xA;               C -24 -56 -36 -52 -42 -46 Z" fill="#8a6a2c" stroke="#3a1c0c" stroke-width="1"></path>
      
      <g fill="url(#goldHigh)" stroke="#3a1c0c" stroke-width="0.6">
        <path d="M -42 -52 Q -50 -62 -36 -66 Q -32 -58 -42 -52 Z"></path>
        <path d="M -28 -66 Q -34 -78 -20 -78 Q -18 -70 -28 -66 Z"></path>
        <path d="M -10 -74 Q -12 -86  2 -84 Q  2 -76 -10 -74 Z"></path>
        <path d="M  14 -74 Q  14 -86  28 -80 Q  24 -72  14 -74 Z"></path>
        <path d="M  30 -66 Q  36 -78  46 -70 Q  40 -62  30 -66 Z"></path>
        <path d="M  42 -52 Q  50 -62  38 -66 Q  34 -58  42 -52 Z"></path>
      </g>

      
      <path d="M -30 -26 Q 0 -34 30 -26 L 28 -18 Q 0 -22 -28 -18 Z" fill="#3a1c0c" opacity="0.5"></path>

      
      <ellipse cx="-14" cy="-16" rx="6" ry="3.2" fill="#0a0403"></ellipse>
      <ellipse cx=" 14" cy="-16" rx="6" ry="3.2" fill="#0a0403"></ellipse>
      <ellipse cx="-14" cy="-16" rx="3.2" ry="2" fill="#fff2c2"></ellipse>
      <ellipse cx=" 14" cy="-16" rx="3.2" ry="2" fill="#fff2c2"></ellipse>
      <circle cx="-14" cy="-16" r="1.2" fill="#d89228"></circle>
      <circle cx=" 14" cy="-16" r="1.2" fill="#d89228"></circle>

      
      <path d="M 0 -14 L -4 6 L 0 10 L 4 6 Z" fill="#3a1c0c" opacity="0.45"></path>

      
      <path d="M -16 16 Q -8 20 0 16 Q 8 20 16 16 Q 12 26 0 22 Q -12 26 -16 16 Z" fill="#2a1408" stroke="#2a1408" stroke-width="0.5"></path>

      
      <path d="M -8 28 Q 0 32 8 28" stroke="#3a1c0c" stroke-width="1.2" fill="none"></path>

      
      <path d="M -22 26&#xA;               Q -20 48 -10 56&#xA;               Q 0 62 10 56&#xA;               Q 20 48 22 26&#xA;               Q 10 34 0 34&#xA;               Q -10 34 -22 26 Z" fill="#2a1408" stroke="#1a0804" stroke-width="0.8"></path>

      
      <path d="M -30 -4 Q -34 10 -28 20" stroke="#f3b35a" stroke-width="0.6" fill="none" opacity="0.5"></path>
      <path d="M  30 -4 Q  34 10  28 20" stroke="#f3b35a" stroke-width="0.6" fill="none" opacity="0.5"></path>
    </g>

    
    <circle cx="0" cy="-170" r="62" fill="none" stroke="#ffe9a8" stroke-width="1.2" opacity="0.85"></circle>

  </g>

  
  <rect y="660" width="600" height="140" fill="url(#bgfade)" opacity="0.95"></rect>
  <rect width="600" height="800" fill="none" stroke="#1a0804" stroke-width="8"></rect>

</svg>